<mxfile host="app.diagrams.net" agent="Mozilla/5.0 (Windows NT 10.0; Win64; x64) AppleWebKit/537.36 (KHTML, like Gecko) Chrome/133.0.0.0 Safari/537.36" version="26.0.16" pages="3">
  <diagram name="Página-1" id="7FADUxo66dzZQySTwONp">
    <mxGraphModel dx="1434" dy="738" grid="1" gridSize="10" guides="1" tooltips="1" connect="1" arrows="1" fold="1" page="1" pageScale="1" pageWidth="827" pageHeight="1169" math="0" shadow="0">
      <root>
        <mxCell id="0" />
        <mxCell id="1" parent="0" />
        <mxCell id="4lEpb8_CYbOhVt0MUca5-41" style="edgeStyle=orthogonalEdgeStyle;rounded=0;orthogonalLoop=1;jettySize=auto;html=1;exitX=0.5;exitY=0.5;exitDx=0;exitDy=0;exitPerimeter=0;entryX=0;entryY=0.5;entryDx=0;entryDy=0;" edge="1" parent="1" source="4lEpb8_CYbOhVt0MUca5-30" target="4lEpb8_CYbOhVt0MUca5-40">
          <mxGeometry relative="1" as="geometry" />
        </mxCell>
        <mxCell id="4lEpb8_CYbOhVt0MUca5-42" style="edgeStyle=orthogonalEdgeStyle;rounded=0;orthogonalLoop=1;jettySize=auto;html=1;exitX=0.5;exitY=0;exitDx=0;exitDy=0;exitPerimeter=0;" edge="1" parent="1" source="4lEpb8_CYbOhVt0MUca5-30" target="4lEpb8_CYbOhVt0MUca5-39">
          <mxGeometry relative="1" as="geometry" />
        </mxCell>
        <mxCell id="4lEpb8_CYbOhVt0MUca5-30" value="recepcionista" style="shape=umlActor;verticalLabelPosition=bottom;verticalAlign=top;html=1;outlineConnect=0;" vertex="1" parent="1">
          <mxGeometry x="60" y="630" width="40" height="60" as="geometry" />
        </mxCell>
        <mxCell id="4lEpb8_CYbOhVt0MUca5-39" value="comfirma&lt;div&gt;reserva&lt;/div&gt;" style="ellipse;whiteSpace=wrap;html=1;" vertex="1" parent="1">
          <mxGeometry x="230" y="585" width="120" height="80" as="geometry" />
        </mxCell>
        <mxCell id="4lEpb8_CYbOhVt0MUca5-40" value="reremcia&lt;div&gt;diponibilidade dos&lt;/div&gt;&lt;div&gt;quatos&lt;/div&gt;" style="ellipse;whiteSpace=wrap;html=1;" vertex="1" parent="1">
          <mxGeometry x="230" y="760" width="120" height="80" as="geometry" />
        </mxCell>
      </root>
    </mxGraphModel>
  </diagram>
  <diagram id="RSCZHO7QjckBTEVWvjAY" name="Página-2">
    <mxGraphModel dx="1434" dy="738" grid="1" gridSize="10" guides="1" tooltips="1" connect="1" arrows="1" fold="1" page="1" pageScale="1" pageWidth="827" pageHeight="1169" math="0" shadow="0">
      <root>
        <mxCell id="0" />
        <mxCell id="1" parent="0" />
        <mxCell id="sUYqZY2FvBNFeAL80dIq-1" style="edgeStyle=orthogonalEdgeStyle;rounded=0;orthogonalLoop=1;jettySize=auto;html=1;exitX=0.5;exitY=0.5;exitDx=0;exitDy=0;exitPerimeter=0;entryX=0;entryY=0.5;entryDx=0;entryDy=0;" edge="1" parent="1" source="sUYqZY2FvBNFeAL80dIq-3" target="sUYqZY2FvBNFeAL80dIq-5">
          <mxGeometry relative="1" as="geometry" />
        </mxCell>
        <mxCell id="sUYqZY2FvBNFeAL80dIq-2" style="edgeStyle=orthogonalEdgeStyle;rounded=0;orthogonalLoop=1;jettySize=auto;html=1;exitX=0.5;exitY=0;exitDx=0;exitDy=0;exitPerimeter=0;" edge="1" parent="1" source="sUYqZY2FvBNFeAL80dIq-3" target="sUYqZY2FvBNFeAL80dIq-4">
          <mxGeometry relative="1" as="geometry" />
        </mxCell>
        <mxCell id="sUYqZY2FvBNFeAL80dIq-3" value="cliente" style="shape=umlActor;verticalLabelPosition=bottom;verticalAlign=top;html=1;outlineConnect=0;" vertex="1" parent="1">
          <mxGeometry x="60" y="630" width="40" height="60" as="geometry" />
        </mxCell>
        <mxCell id="sUYqZY2FvBNFeAL80dIq-4" value="fazer&lt;div&gt;reserva&lt;/div&gt;" style="ellipse;whiteSpace=wrap;html=1;" vertex="1" parent="1">
          <mxGeometry x="230" y="585" width="120" height="80" as="geometry" />
        </mxCell>
        <mxCell id="sUYqZY2FvBNFeAL80dIq-5" value="canselar&lt;div&gt;reseva&lt;/div&gt;" style="ellipse;whiteSpace=wrap;html=1;" vertex="1" parent="1">
          <mxGeometry x="230" y="760" width="120" height="80" as="geometry" />
        </mxCell>
      </root>
    </mxGraphModel>
  </diagram>
  <diagram id="cb0an3ytkCsQQsJWb1Un" name="Página-3">
    <mxGraphModel dx="792" dy="787" grid="1" gridSize="10" guides="1" tooltips="1" connect="1" arrows="1" fold="1" page="1" pageScale="1" pageWidth="827" pageHeight="1169" math="0" shadow="0">
      <root>
        <mxCell id="0" />
        <mxCell id="1" parent="0" />
        <mxCell id="zTn4py2TA7nEfChNzltE-34" style="edgeStyle=none;curved=1;rounded=0;orthogonalLoop=1;jettySize=auto;html=1;exitX=0.75;exitY=0.1;exitDx=0;exitDy=0;exitPerimeter=0;entryX=0;entryY=0.5;entryDx=0;entryDy=0;fontSize=12;startSize=8;endSize=8;" edge="1" parent="1" source="zTn4py2TA7nEfChNzltE-30" target="zTn4py2TA7nEfChNzltE-31">
          <mxGeometry relative="1" as="geometry" />
        </mxCell>
        <mxCell id="zTn4py2TA7nEfChNzltE-30" value="Actor" style="shape=umlActor;verticalLabelPosition=bottom;verticalAlign=top;html=1;outlineConnect=0;" vertex="1" parent="1">
          <mxGeometry x="70" y="440" width="30" height="60" as="geometry" />
        </mxCell>
        <mxCell id="zTn4py2TA7nEfChNzltE-31" value="navegar" style="ellipse;whiteSpace=wrap;html=1;" vertex="1" parent="1">
          <mxGeometry x="170" y="320" width="120" height="80" as="geometry" />
        </mxCell>
        <mxCell id="zTn4py2TA7nEfChNzltE-37" style="edgeStyle=none;curved=1;rounded=0;orthogonalLoop=1;jettySize=auto;html=1;exitX=1;exitY=0;exitDx=0;exitDy=0;fontSize=12;startSize=8;endSize=8;" edge="1" parent="1" source="zTn4py2TA7nEfChNzltE-32" target="zTn4py2TA7nEfChNzltE-36">
          <mxGeometry relative="1" as="geometry" />
        </mxCell>
        <mxCell id="zTn4py2TA7nEfChNzltE-32" value="escolher hotel" style="ellipse;whiteSpace=wrap;html=1;" vertex="1" parent="1">
          <mxGeometry x="170" y="440" width="120" height="80" as="geometry" />
        </mxCell>
        <mxCell id="zTn4py2TA7nEfChNzltE-35" style="edgeStyle=none;curved=1;rounded=0;orthogonalLoop=1;jettySize=auto;html=1;exitX=0.5;exitY=1;exitDx=0;exitDy=0;fontSize=12;startSize=8;endSize=8;entryX=0.5;entryY=0;entryDx=0;entryDy=0;" edge="1" parent="1" source="zTn4py2TA7nEfChNzltE-31" target="zTn4py2TA7nEfChNzltE-32">
          <mxGeometry relative="1" as="geometry">
            <mxPoint x="230" y="430" as="targetPoint" />
          </mxGeometry>
        </mxCell>
        <mxCell id="zTn4py2TA7nEfChNzltE-39" style="edgeStyle=none;curved=1;rounded=0;orthogonalLoop=1;jettySize=auto;html=1;exitX=0.5;exitY=1;exitDx=0;exitDy=0;entryX=0.5;entryY=0;entryDx=0;entryDy=0;fontSize=12;startSize=8;endSize=8;" edge="1" parent="1" source="zTn4py2TA7nEfChNzltE-36" target="zTn4py2TA7nEfChNzltE-38">
          <mxGeometry relative="1" as="geometry" />
        </mxCell>
        <mxCell id="zTn4py2TA7nEfChNzltE-36" value="escolher&lt;div&gt;nivel&lt;/div&gt;" style="ellipse;whiteSpace=wrap;html=1;" vertex="1" parent="1">
          <mxGeometry x="380" y="320" width="120" height="80" as="geometry" />
        </mxCell>
        <mxCell id="zTn4py2TA7nEfChNzltE-38" value="pagar" style="ellipse;whiteSpace=wrap;html=1;" vertex="1" parent="1">
          <mxGeometry x="380" y="450" width="120" height="80" as="geometry" />
        </mxCell>
        <mxCell id="zTn4py2TA7nEfChNzltE-40" value="Actor" style="shape=umlActor;verticalLabelPosition=bottom;verticalAlign=top;html=1;outlineConnect=0;" vertex="1" parent="1">
          <mxGeometry x="760" y="330" width="30" height="60" as="geometry" />
        </mxCell>
        <mxCell id="zTn4py2TA7nEfChNzltE-41" value="selecionar&lt;div&gt;quarto&lt;/div&gt;" style="ellipse;whiteSpace=wrap;html=1;" vertex="1" parent="1">
          <mxGeometry x="570" y="320" width="120" height="80" as="geometry" />
        </mxCell>
        <mxCell id="zTn4py2TA7nEfChNzltE-42" value="" style="endArrow=classic;startArrow=classic;html=1;rounded=0;fontSize=12;startSize=8;endSize=8;curved=1;entryX=0;entryY=0.5;entryDx=0;entryDy=0;exitX=1;exitY=0.5;exitDx=0;exitDy=0;" edge="1" parent="1" source="zTn4py2TA7nEfChNzltE-36" target="zTn4py2TA7nEfChNzltE-41">
          <mxGeometry width="50" height="50" relative="1" as="geometry">
            <mxPoint x="510" y="390" as="sourcePoint" />
            <mxPoint x="560" y="340" as="targetPoint" />
          </mxGeometry>
        </mxCell>
        <mxCell id="zTn4py2TA7nEfChNzltE-43" value="cobrar" style="ellipse;whiteSpace=wrap;html=1;" vertex="1" parent="1">
          <mxGeometry x="570" y="450" width="120" height="80" as="geometry" />
        </mxCell>
      </root>
    </mxGraphModel>
  </diagram>
</mxfile>
